<?xml version="1.0" encoding="utf-8"?>
<!-- Generator: Adobe Illustrator 27.5.0, SVG Export Plug-In . SVG Version: 6.00 Build 0)  -->
<svg version="1.1" id="Layer_1" xmlns="http://www.w3.org/2000/svg" xmlns:xlink="http://www.w3.org/1999/xlink" x="0px" y="0px"
	 viewBox="0 0 100 100" style="enable-background:new 0 0 100 100;" xml:space="preserve">
<style type="text/css">
	.st0{fill:#ED1C24;}
	.st1{fill:#F7931E;}
</style>
<rect x="5.05" y="5.71" transform="matrix(0.7071 0.7071 -0.7071 0.7071 17.3046 -6.7769)" class="st0" width="23.57" height="23.57"/>
<rect x="38.05" y="5.71" transform="matrix(0.7071 0.7071 -0.7071 0.7071 26.97 -30.1114)" class="st1" width="23.57" height="23.57"/>
<rect x="71.05" y="5.71" transform="matrix(0.7071 0.7071 -0.7071 0.7071 36.6355 -53.446)" class="st0" width="23.57" height="23.57"/>
<rect x="71.05" y="38.71" transform="matrix(0.7071 0.7071 -0.7071 0.7071 59.97 -43.7805)" class="st1" width="23.57" height="23.57"/>
<rect x="71.05" y="71.71" transform="matrix(0.7071 0.7071 -0.7071 0.7071 83.3046 -34.115)" class="st0" width="23.57" height="23.57"/>
<rect x="38.05" y="38.71" transform="matrix(0.7071 0.7071 -0.7071 0.7071 50.3046 -20.446)" class="st0" width="23.57" height="23.57"/>
<rect x="38.05" y="71.71" transform="matrix(0.7071 0.7071 -0.7071 0.7071 73.6391 -10.7805)" class="st1" width="23.57" height="23.57"/>
<rect x="5.05" y="38.71" transform="matrix(0.7071 0.7071 -0.7071 0.7071 40.6391 2.8886)" class="st1" width="23.57" height="23.57"/>
<rect x="5.05" y="71.71" transform="matrix(0.7071 0.7071 -0.7071 0.7071 63.9736 12.554)" class="st0" width="23.57" height="23.57"/>
</svg>
